<svg xmlns="http://www.w3.org/2000/svg" viewBox="0 0 413 406.97"><defs><style>.cls-1{fill:#b7b7b7;}.cls-2{fill:#4f772d;}.cls-3{fill:none;stroke:#fff;stroke-miterlimit:10;stroke-width:2px;}.cls-4{fill:#55a630;}.cls-5{fill:#6b3f17;}.cls-6{fill:#f7f7f7;}</style></defs><title>Recurso 2-50</title><g id="Capa_2" data-name="Capa 2"><g id="Capa_1-2" data-name="Capa 1"><ellipse class="cls-1" cx="209.5" cy="379.47" rx="203.5" ry="27.5"/><path class="cls-2" d="M348.82,124.37S280.17,88.84,321.34.33c0,0,65.56,53.07,51.6,90.11S348.82,124.37,348.82,124.37Z"/><path class="cls-3" d="M321.3.32s38,113.55,27.1,124.76"/><path class="cls-3" d="M309.86,63.57s45,9.88,55.91-8.26"/><path class="cls-3" d="M311.47,40.86s33,7.24,41-6"/><path class="cls-3" d="M317.94,86.37s42.55,9.33,52.86-7.81"/><path class="cls-4" d="M28.14,333.06s86.34,78.16,177.47,36.67S387.88,261.65,373.49,198,361,115,361,115H339S280.44,39.7,201.78,50.31,43.49,133.3,28.14,163.22s-37.41,59.83-24,106.15S7,332.09,7,332.09Z"/><path class="cls-5" d="M353.12,117.34l7.35,8s39-38.5,52-62.5l-15-8Z"/><path class="cls-6" d="M53.5,178.33c-10.88,3-17.47,12.87-21.34,22.82-2.28,5.83-4,11.91-5.76,17.93a79.65,79.65,0,0,0-3.3,18.5c-.28,7,.51,14.18-1.66,21l2.95.4a170.23,170.23,0,0,1,3.19-33.25q1.62-8.19,4-16.2c.79-2.62,1.65-5.23,2.56-7.82a47.31,47.31,0,0,1,3.07-7.4c2.71-4.82,7.8-7.08,12.7-9.11a1.51,1.51,0,0,0-.8-2.9c-7.88,1.16-13.35,9.84-11.3,17.46a1.52,1.52,0,0,0,2.74.36,50.28,50.28,0,0,1,8.25-10A1.51,1.51,0,0,0,47,187.73a30.84,30.84,0,0,0-15,23.12c-.19,1.62,2,1.85,2.79.76L47.5,193.1c1.09-1.6-1.5-3.1-2.59-1.52-5.56,8.06-10.84,16.18-14.16,25.45C27.58,225.89,26,235.24,25,244.57c-.59,5.34-1,10.7-1.4,16.05l3-.39c-2.42-11.41.33-23.42,2.46-34.65,2-10.39,4.69-20.91,11.05-29.56a33.85,33.85,0,0,1,12-10.33c1.63-.81.4-3-1.16-2.74-5.36.88-9.52,4.6-12.71,8.79a74.31,74.31,0,0,0-8.51,15.36A104.91,104.91,0,0,0,21.12,243c-.17,3.08-.21,6.17-.09,9.25.08,2.36.22,5.67,3.09,6.32s4.86-1.9,5.2-4.37a22.88,22.88,0,0,0-.06-4.3c-.09-1.6-.13-3.21-.12-4.82a83.38,83.38,0,0,1,8.19-35.69c2.86-5.94,6.36-11.79,11.13-16.4a32.49,32.49,0,0,1,3.84-3.19,15,15,0,0,0,3.54-3c1.7-2.25,1.68-5.52-.76-7.21a1.46,1.46,0,0,0-1.51,0c-5,2.94-10.12,5.86-15.15,8.83a23,23,0,0,0-6,4.54,20.94,20.94,0,0,0-3.55,6.25,141.81,141.81,0,0,0-4.75,15.87q-2.14,8.34-3.7,16.8-1.77,9.62-2.76,19.33c-.2,1.92,2.8,1.9,3,0a239.26,239.26,0,0,1,5.65-32.55c1.3-5.3,2.77-10.57,4.45-15.76a26.52,26.52,0,0,1,2.82-6.51,15.68,15.68,0,0,1,5.22-4.73c5.33-3.29,10.83-6.33,16.24-9.48H53.57c.72.49.53,1.67.2,2.33A7.63,7.63,0,0,1,51.11,187a38.82,38.82,0,0,0-5.94,5.07,58.79,58.79,0,0,0-9.05,13.09,86.94,86.94,0,0,0-9.54,31.63q-.42,4.14-.44,8.31c0,1.39,0,2.78.08,4.17a33.42,33.42,0,0,1,.19,4.12c-.05.71-.51,2.64-1.65,2.26-.84-.28-.69-2.3-.72-2.94q-.16-4.18,0-8.37A101.77,101.77,0,0,1,31,211.72a86.31,86.31,0,0,1,8.34-16.43c3-4.42,6.9-8.55,12.37-9.45l-1.16-2.74c-9.05,4.53-15.29,13.06-19.08,22.24a93,93,0,0,0-5,17.38c-1.17,5.85-2.24,11.76-3.05,17.67-.93,6.87-1.26,13.81.19,20.63.37,1.75,2.82,1.21,2.94-.4,1.36-18.36,2.91-37.33,12.06-53.73,2.66-4.78,5.77-9.29,8.88-13.79l-2.59-1.52L32.2,210.1l2.8.75a27.7,27.7,0,0,1,13.52-20.53L46.7,188A53.37,53.37,0,0,0,38,198.6l2.74.35c-1.66-6.18,3-12.84,9.21-13.76l-.8-2.9c-4.48,1.86-9.24,3.83-12.47,7.61-3.54,4.14-5.09,9.93-6.75,15a173.08,173.08,0,0,0-7.44,34.35A170.68,170.68,0,0,0,21.39,259a1.5,1.5,0,0,0,2.94.4c1.82-5.71,1.68-11.72,1.7-17.64a73.81,73.81,0,0,1,2.28-18.18c1.48-5.85,3.28-11.66,5.21-17.38,1.81-5.36,4-10.69,7.4-15.26a25.27,25.27,0,0,1,13.37-9.68,1.5,1.5,0,0,0-.79-2.9Z"/><path class="cls-6" d="M51.82,182.77a14.68,14.68,0,0,1-2.9,2.43,1.51,1.51,0,0,0,.76,2.79,4.92,4.92,0,0,0,4.82-3.92,1.52,1.52,0,0,0-1.84-1.85,12.36,12.36,0,0,0-6.5,4.65c-.85,1.17.56,2.4,1.7,2.2A7.44,7.44,0,0,0,51.8,187c1.26-1.23-.34-3.09-1.82-2.35a23.63,23.63,0,0,0-5.25,3.6c-1.24,1.11.12,2.71,1.46,2.51a6.92,6.92,0,0,0,4-2.09c1-1,0-3.11-1.46-2.51a61.93,61.93,0,0,0-18.2,11.52c-1.21,1.1.1,2.74,1.46,2.5a14.56,14.56,0,0,0,5-1.84l-2.2-1.69L32.78,202c-.48,1.31,1.13,2.26,2.2,1.69a30.73,30.73,0,0,0,6.29-4.39l-2.36-1.82L37,200.65c-.82,1.42,1.29,3.2,2.36,1.82a3.44,3.44,0,0,0,.76-2.95c-.2-1.24-1.73-1.29-2.5-.67a33,33,0,0,0-6.32,6.61,7.34,7.34,0,0,0-1.57,3.78,4.41,4.41,0,0,0,.42,2.11c.14.29.72,1.3.73,1.29l2.51,1.46.39-1.79a1.5,1.5,0,0,0-2.89-.79c-1.79,4.34-3.59,8.68-5,13.15a103.71,103.71,0,0,0-3.09,13.6A24.18,24.18,0,0,1,21,244.56c-.9,1.85-2,3.57-2.76,5.49-1.58,4.1.14,7.69,3.73,9.94,1.51.94,2.89-1.12,1.81-2.36a7.25,7.25,0,0,1-1.68-5.55c.16-1.66-2.72-2.07-2.94-.4-.55,4-.58,9.39,4.28,10.65a4.4,4.4,0,0,0,4.83-1.6c1.38-2,1-4.86,1-7.15a1.51,1.51,0,0,0-2.95-.39c-.41,1.73-1.05,3.76-2.78,4.6-1.15.56-3.38.2-2.94-1.55l-2.95-.4a6.59,6.59,0,0,0,4.69,6.81c1.85.57,2.64-2.33.79-2.89a3.62,3.62,0,0,1-2.48-3.92c.16-1.7-2.54-2-2.94-.4a4.66,4.66,0,0,0,5.18,5.62c3.67-.43,5.55-3.82,6.33-7.08l-2.95-.4c0,1.64.78,6.89-2.3,5.78-2.7-1-2.2-4.65-1.9-6.88l-3-.4a10.21,10.21,0,0,0,2.56,7.67l1.82-2.35c-1.5-.94-2.86-2.25-2.89-4.14s1.08-3.61,1.94-5.18a33.84,33.84,0,0,0,3.57-11.19c1.41-8.59,4.45-16.56,7.76-24.58l-2.89-.79-.4,1.78A1.51,1.51,0,0,0,33,214.76a3,3,0,0,0,.59-3.3,12.55,12.55,0,0,1-.82-1.64,2.91,2.91,0,0,1,.65-2.14,27,27,0,0,1,6.32-6.7l-2.51-.67v0l2.35,1.82L41.5,199a1.51,1.51,0,0,0-2.36-1.82,27.69,27.69,0,0,1-5.67,3.92l2.2,1.7,1.94-5.3a1.52,1.52,0,0,0-2.2-1.7,12.25,12.25,0,0,1-4.26,1.54l1.46,2.51a58,58,0,0,1,16.88-10.75L48,186.55a4.29,4.29,0,0,1-2.64,1.32l1.46,2.5a20.56,20.56,0,0,1,4.64-3.13l-1.82-2.36a4.64,4.64,0,0,1-2.61,1.3l1.69,2.2a9,9,0,0,1,4.7-3.27l-1.84-1.84A1.94,1.94,0,0,1,49.68,185l.75,2.8a18.12,18.12,0,0,0,3.52-2.9c1.31-1.41-.8-3.54-2.13-2.12Z"/><path class="cls-6" d="M54.26,177c-4.92-.26-9,2.77-12.55,5.83-2.05,1.77-4.07,3.58-6.1,5.38-1.77,1.57-3.47,3.28-4,5.65A1.51,1.51,0,0,0,34.32,195a33.1,33.1,0,0,1,4.58-6.72c2-2.12,4.62-2.92,7.1-4.36,2.12-1.23,4.81-4.23,7.54-3.44,1.79.52,2.11,3.06.83,4.25l2.36,1.81a6.18,6.18,0,0,0,.92-6.06c-.83-1.78-3.28-2.54-4.16-.37h2.89c-1.62-4-6-3.72-9.44-2.54a27.91,27.91,0,0,0-9.64,5.84c-6,5.49-9.56,13-12.28,20.56-.65,1.82,2.24,2.6,2.9.8,2.27-6.31,5.14-12.61,9.79-17.55A27.31,27.31,0,0,1,45,181.61c1.73-.89,7.33-3.6,8.5-.73a1.51,1.51,0,0,0,2.89,0l.08-.18-.69.9c-.74-.24-1-.17-.81.19a1.49,1.49,0,0,1,.13.47,2.6,2.6,0,0,1-.06.88,4.93,4.93,0,0,1-.89,1.86c-1,1.44,1.15,2.93,2.36,1.82a5.68,5.68,0,0,0,.41-7.54c-2.37-3-6.52-1.93-9.28-.12A38.4,38.4,0,0,1,43,182.07a22.25,22.25,0,0,0-4.93,2.86c-2.75,2.28-4.59,5.47-6.33,8.53l2.74,1.15c.48-2,2.13-3.33,3.62-4.65,1.81-1.6,3.61-3.21,5.44-4.8,3-2.63,6.49-5.43,10.73-5.21,1.92.11,1.92-2.89,0-3Z"/><path class="cls-6" d="M26.57,202.25a16.57,16.57,0,0,0-3.64,10l2.95-.4a6.43,6.43,0,0,1,.6-4.09l-2.74-1.16c-2,7.76-4.26,15.5-5.44,23.44-.6,4.07-1,8.17-1.35,12.28-.32,3.89-.78,7.83-.89,11.74-.09,3.64,1.16,7.62,5,8.8,1.84.58,2.64-2.32.79-2.89-4.07-1.26-2.66-7.69-2.42-10.75.37-4.74.71-9.47,1.24-14.19,1.07-9.41,3.65-18.48,6-27.63.41-1.59-1.95-2.72-2.74-1.16a9.82,9.82,0,0,0-.9,6.41c.31,1.71,2.91,1.24,2.94-.4a13.19,13.19,0,0,1,2.76-7.89c1.18-1.51-.93-3.64-2.12-2.12Z"/></g></g></svg>