<svg xmlns="http://www.w3.org/2000/svg" viewBox="0 0 218.56 161.81"><defs><style>.cls-1{fill:#dbd8ce;}.cls-1,.cls-2,.cls-3,.cls-4,.cls-5,.cls-6,.cls-7{stroke:#000;}.cls-1,.cls-2,.cls-3,.cls-4,.cls-5,.cls-6,.cls-7,.cls-8,.cls-9{stroke-miterlimit:10;}.cls-1,.cls-2,.cls-8{stroke-width:2px;}.cls-2{fill:#344e41;}.cls-3{fill:#f8f7fc;}.cls-4,.cls-8,.cls-9{fill:none;}.cls-5{fill:#323332;}.cls-6{fill:#b0b5b1;}.cls-7{fill:#588157;}.cls-8,.cls-9{stroke:#7bc4aa;}</style></defs><title>Recurso 1-50</title><g id="Capa_2" data-name="Capa 2"><g id="Capa_1-2" data-name="Capa 1"><path class="cls-1" d="M104.08,160.81h39.39V148.55H129.38V86.72h58.18s12.26-60-11.74-60.26-93.92,0-93.92,0S63.12,31.42,63.38,45s0,9.13,0,9.13H38.08V86.46h80.08v62.35H104.08Z"/><ellipse class="cls-2" cx="79.69" cy="56.46" rx="18.65" ry="30"/><rect class="cls-3" x="38.08" y="54.12" width="48.52" height="32.35"/><polyline class="cls-4" points="38.08 54.12 62.34 70.29 86.6 54.12"/><circle class="cls-5" cx="146.34" cy="46.29" r="8.61"/><line class="cls-6" x1="146.34" y1="37.68" x2="146.34" y2="2.99"/><rect class="cls-7" x="146.34" y="2.99" width="22.96" height="11.74"/><ellipse class="cls-8" cx="209.21" cy="22.49" rx="8.35" ry="3.86"/><polygon class="cls-9" points="7.82 99.77 5.49 100.14 4.48 102.27 3.41 100.18 1.07 99.87 2.73 98.2 2.3 95.89 4.4 96.95 6.47 95.82 6.1 98.15 7.82 99.77"/><polygon class="cls-9" points="9.12 15.77 12.04 13.84 15.17 15.4 15.38 18.9 12.46 20.83 9.33 19.26 9.12 15.77"/><polygon class="cls-9" points="212.08 106.81 210.75 108.43 211.34 110.44 209.38 109.68 207.65 110.86 207.77 108.77 206.12 107.48 208.15 106.95 208.85 104.98 209.99 106.75 212.08 106.81"/><polygon class="cls-9" points="111.12 2.98 109.69 5.47 106.82 5.47 105.38 2.98 106.82 0.5 109.69 0.5 111.12 2.98"/></g></g></svg>